<svg xmlns="http://www.w3.org/2000/svg" viewBox="0 0 64 64" role="img" aria-label="Newsmiru favicon">
  <defs>
    <linearGradient id="bg" x1="0" y1="0" x2="1" y2="1">
      <stop offset="0%" stop-color="#0f2748"/>
      <stop offset="100%" stop-color="#163d73"/>
    </linearGradient>
    <linearGradient id="accent" x1="0" y1="0" x2="1" y2="1">
      <stop offset="0%" stop-color="#7dc4ff"/>
      <stop offset="100%" stop-color="#4ea1f3"/>
    </linearGradient>
  </defs>

  <rect x="4" y="4" width="56" height="56" rx="14" fill="url(#bg)"/>
  <rect x="15" y="14" width="34" height="36" rx="6" fill="#f4f9ff" opacity="0.96"/>
  <rect x="19" y="20" width="22" height="3.6" rx="1.8" fill="#9eb2c9"/>
  <rect x="19" y="27" width="26" height="3.6" rx="1.8" fill="#b2c2d6"/>
  <rect x="19" y="34" width="18" height="3.6" rx="1.8" fill="#c4d1e1"/>

  <path d="M47 43.5c0 5.1-4.1 9.2-9.2 9.2S28.6 48.6 28.6 43.5s4.1-9.2 9.2-9.2c2.1 0 4 .7 5.5 1.8l-2.7 2.6c-.7-.4-1.5-.6-2.4-.6-2.8 0-5.1 2.3-5.1 5.1s2.3 5.1 5.1 5.1c2.3 0 4.3-1.5 4.9-3.6h-4.9v-3.9H47v2.7z" fill="url(#accent)"/>
</svg>
