<svg xmlns="http://www.w3.org/2000/svg" viewBox="0 0 420 120" role="img" aria-label="Newsmiru logo">
  <defs>
    <linearGradient id="g1" x1="0" y1="0" x2="1" y2="1">
      <stop offset="0%" stop-color="#102948"/>
      <stop offset="100%" stop-color="#1a467b"/>
    </linearGradient>
    <linearGradient id="g2" x1="0" y1="0" x2="1" y2="1">
      <stop offset="0%" stop-color="#7dc4ff"/>
      <stop offset="100%" stop-color="#4ea1f3"/>
    </linearGradient>
  </defs>

  <rect x="8" y="8" width="104" height="104" rx="22" fill="url(#g1)"/>
  <rect x="28" y="24" width="58" height="60" rx="10" fill="#f4f9ff" opacity="0.98"/>
  <rect x="35" y="34" width="38" height="6" rx="3" fill="#9eb2c9"/>
  <rect x="35" y="46" width="45" height="6" rx="3" fill="#b2c2d6"/>
  <rect x="35" y="58" width="32" height="6" rx="3" fill="#c4d1e1"/>

  <circle cx="82" cy="78" r="17" fill="#f4f9ff"/>
  <path d="M94 78c0 6.6-5.4 12-12 12s-12-5.4-12-12 5.4-12 12-12c2.6 0 4.9.8 6.8 2.1l-3.2 3.2c-.9-.5-2-.8-3.1-.8-4.1 0-7.5 3.4-7.5 7.5s3.4 7.5 7.5 7.5c3.2 0 6-2.1 7.1-5h-7.1v-4.5H94V78z" fill="url(#g2)"/>

  <text x="132" y="72" font-family="Inter, Segoe UI, Arial, sans-serif" font-size="46" font-weight="700" fill="#123055" letter-spacing="0.5">Newsmiru</text>
  <text x="136" y="94" font-family="Inter, Segoe UI, Arial, sans-serif" font-size="14" fill="#4f6b89">curated daily signal</text>
</svg>
